<?xml version="1.0" encoding="UTF-8"?>
<svg version="1.1" xmlns="http://www.w3.org/2000/svg" width="512" height="512">
<path d="M0 0 C0.9930726 -0.00706559 1.98614519 -0.01413118 3.0093109 -0.02141088 C4.09295481 -0.0189958 5.17659872 -0.01658071 6.29308033 -0.01409245 C7.45002567 -0.01932912 8.606971 -0.0245658 9.79897529 -0.02996117 C13.00645815 -0.04236713 16.21380518 -0.04580473 19.42130744 -0.04536426 C22.88226787 -0.04701372 26.34318849 -0.06008273 29.80412769 -0.07155704 C37.37037688 -0.09439708 44.93659801 -0.10232671 52.502877 -0.10738349 C57.22927279 -0.11064193 61.95566046 -0.11716534 66.68205166 -0.12438488 C79.77366562 -0.14395019 92.86527203 -0.16035458 105.95690155 -0.16326141 C106.79451192 -0.16344898 107.63212229 -0.16363655 108.49511479 -0.16382981 C110.19308778 -0.16419605 111.89106076 -0.16455975 113.58903375 -0.16492092 C114.43188624 -0.16510373 115.27473873 -0.16528654 116.14313221 -0.16547489 C116.98701619 -0.16565544 117.83090018 -0.16583599 118.7003564 -0.16602201 C132.37005709 -0.1695626 146.03960015 -0.19657807 159.70924618 -0.23397278 C173.75099529 -0.27207729 187.79266623 -0.29141905 201.83446819 -0.29172093 C209.71547241 -0.29230504 217.59628862 -0.30076748 225.47724438 -0.32971859 C232.18894873 -0.35426131 238.90039652 -0.36149606 245.61213364 -0.34647106 C249.03427032 -0.33931358 252.45590068 -0.34010819 255.87798023 -0.36288166 C259.59466848 -0.38331517 263.31005108 -0.37280374 267.02672291 -0.35466862 C268.63545836 -0.37446857 268.63545836 -0.37446857 270.27669352 -0.39466852 C277.44078797 -0.31499893 283.03222032 1.13693031 288.97736073 5.26006222 C294.51805944 11.09374258 297.22354817 16.63531086 297.23742294 24.75352764 C297.24122861 25.39480575 297.24503429 26.03608385 297.24895528 26.69679463 C297.25927195 28.84831654 297.25536483 30.99957467 297.25151539 33.15111446 C297.25596776 34.70819266 297.2612818 36.2652686 297.26738411 37.8223412 C297.28157469 42.10348128 297.2832272 46.38454879 297.2827872 50.66570902 C297.28443447 55.28207529 297.2974993 59.89841158 297.30897999 64.51476192 C297.33183588 74.60978908 297.33975119 84.70479522 297.34480643 94.79984474 C297.34806267 101.10283312 297.3545847 107.40581539 297.36180782 113.70880032 C297.38137428 131.15908137 297.3977783 148.60935674 297.40068436 166.05964947 C297.40087193 167.17646686 297.4010595 168.29328425 297.40125275 169.44394459 C297.401619 171.70801719 297.4019827 173.97208979 297.40234386 176.23616239 C297.40252667 177.3600552 297.40270948 178.483948 297.40289783 179.64189816 C297.40316866 181.32979428 297.40316866 181.32979428 297.40344495 183.05178931 C297.40698704 201.28751548 297.43401142 219.5231236 297.47139572 237.75880882 C297.50946818 256.47993235 297.52884175 275.20099728 297.52914387 293.92216039 C297.52972867 304.43391901 297.53823518 314.94553679 297.56714153 325.45725918 C297.59164115 334.407661 297.59894786 343.35787061 297.58389401 352.30829689 C297.57671939 356.87453811 297.57760629 361.44039969 297.6003046 366.00659847 C297.62089607 370.18905195 297.61829298 374.37083393 297.59742976 378.55328014 C297.59393517 380.06405301 297.59884371 381.57487434 297.6131342 383.08558366 C297.6974444 392.61463335 296.89140107 399.7835317 290.33263105 407.09305739 C283.3889328 414.03331028 274.17723529 414.57559733 264.84127712 414.60839462 C262.49845008 414.59971663 260.15601825 414.57665202 257.81329823 414.55303097 C256.16849628 414.54742518 254.52368928 414.54315974 252.8788805 414.54016781 C248.58148468 414.52879626 244.28440037 414.49939679 239.98712635 414.46605587 C235.58938274 414.43518772 231.19158805 414.42162693 226.79376698 414.40654659 C218.18815639 414.37451846 209.58279748 414.32341707 200.97736073 414.26006222 C201.00354481 415.11648312 201.02972889 415.97290401 201.05670643 416.85527706 C201.14270011 420.07949587 201.20497977 423.30312403 201.25201893 426.52812862 C201.27692878 427.91504486 201.31087075 429.30183308 201.35455799 430.68828487 C201.65360804 440.43379833 201.07992264 448.64183504 194.2500658 456.16191769 C188.34004829 461.88716182 181.1448124 463.72800399 173.0925951 463.60063839 C172.35015553 463.60107647 171.60771595 463.60151455 170.84277821 463.6019659 C168.41860994 463.59989627 165.99515632 463.57665332 163.57111073 463.55303097 C161.87860968 463.54742848 160.18610374 463.54316147 158.49359608 463.54016781 C154.06136873 463.52877033 149.62944118 463.49934768 145.19733143 463.46605587 C140.66571577 463.43524446 136.13405118 463.42163892 131.60236073 463.40654659 C122.72722976 463.37447257 113.85232027 463.32333863 104.97736073 463.26006222 C104.99830799 464.05066036 105.01925526 464.84125851 105.04083729 465.65581417 C105.12482351 469.29459685 105.1762816 472.93317465 105.22736073 476.57256222 C105.26087635 477.815863 105.29439198 479.05916378 105.32892323 480.34014034 C105.42413106 489.40868686 104.58912832 497.7049707 98.79376698 505.01396847 C98.04997791 505.61080441 97.30618885 506.20764034 96.53986073 506.82256222 C95.79864979 507.44260128 95.05743885 508.06264034 94.29376698 508.70146847 C90.27615423 511.40471886 86.78507244 512.50910785 81.95472145 512.52012444 C80.96164885 512.52719003 79.96857626 512.53425562 78.94541055 512.54153532 C77.86176664 512.53912023 76.77812273 512.53670515 75.66164112 512.53421688 C74.50469578 512.53945356 73.34775045 512.54469024 72.15574616 512.5500856 C68.9482633 512.56249157 65.74091627 512.56592916 62.53341401 512.5654887 C59.07245358 512.56713816 55.61153296 512.58020716 52.15059376 512.59168148 C44.58434457 512.61452151 37.01812344 512.62245114 29.45184445 512.62750793 C24.72544866 512.63076637 19.99906099 512.63728978 15.27266979 512.64450932 C2.18105583 512.66407462 -10.91055058 512.68047901 -24.0021801 512.68338585 C-24.83979047 512.68357342 -25.67740084 512.68376099 -26.54039334 512.68395424 C-28.23836633 512.68432049 -29.93633931 512.68468419 -31.63431229 512.68504535 C-32.89859103 512.68531957 -32.89859103 512.68531957 -34.18841076 512.68559933 C-35.03229474 512.68577988 -35.87617873 512.68596043 -36.74563495 512.68614645 C-50.41533564 512.68968704 -64.0848787 512.7167025 -77.75452473 512.75409722 C-91.79627384 512.79220172 -105.83794478 512.81154349 -119.87974674 512.81184536 C-127.76075096 512.81242948 -135.64156717 512.82089192 -143.52252293 512.84984303 C-150.23422728 512.87438575 -156.94567507 512.8816205 -163.65741219 512.8665955 C-167.07954887 512.85943801 -170.50117923 512.86023263 -173.92325878 512.8830061 C-177.63994703 512.9034396 -181.35532963 512.89292817 -185.07200146 512.87479305 C-186.14449176 512.88799302 -187.21698206 512.90119299 -188.32197207 512.91479295 C-195.48606652 512.83512337 -201.07749887 511.38319413 -207.02263927 507.26006222 C-212.56457467 501.42507977 -215.2698908 495.88407258 -215.27990818 487.76380348 C-215.28341425 487.12222578 -215.28692033 486.48064808 -215.29053265 485.81962863 C-215.29984583 483.66709292 -215.29492365 481.5148278 -215.29006481 479.36228085 C-215.29380112 477.80449033 -215.29840256 476.24670169 -215.30379546 474.68891603 C-215.31604331 470.40584131 -215.31576289 466.12284461 -215.31340671 461.83975637 C-215.31299899 457.22136724 -215.32403336 452.60300326 -215.33352184 447.98462582 C-215.35014259 438.93542705 -215.35563187 429.88625433 -215.3567466 420.83704158 C-215.35769656 413.48215248 -215.36180426 406.12727198 -215.36814785 398.7723856 C-215.38576317 377.92486154 -215.39498626 357.07735809 -215.3934869 336.22982653 C-215.39340699 335.10567101 -215.39332708 333.98151548 -215.39324474 332.82329464 C-215.39316298 331.69776825 -215.39308122 330.57224185 -215.39299698 329.4126086 C-215.39218399 311.16975786 -215.41132415 292.92698968 -215.43952148 274.68416282 C-215.46823866 255.9573945 -215.48206241 237.23066646 -215.48033392 218.50387555 C-215.47966962 207.98825999 -215.48517958 197.47273095 -215.50669003 186.9571352 C-215.52488647 178.00416043 -215.52926179 169.05131141 -215.51567118 160.09832617 C-215.50913378 155.5302362 -215.50905214 150.96238761 -215.52637768 146.39432049 C-215.54207938 142.21138075 -215.53927463 138.02887437 -215.52180941 133.8459454 C-215.5187331 132.33384754 -215.5223957 130.82171759 -215.53352956 129.3096576 C-215.59647529 120.15376947 -215.21000338 113.42569698 -209.23357677 106.05303097 C-208.6277174 105.52322628 -208.02185802 104.99342159 -207.39763927 104.44756222 C-206.80724865 103.90486691 -206.21685802 103.36217159 -205.60857677 102.80303097 C-196.40389128 97.31080926 -186.20199265 97.86280341 -175.85857677 97.96709347 C-174.21377483 97.97269925 -172.56896783 97.9769647 -170.92415905 97.97995663 C-166.62676323 97.99132818 -162.32967892 98.02072765 -158.0324049 98.05406857 C-153.63466129 98.08493672 -149.2368666 98.0984975 -144.83904552 98.11357784 C-136.23343494 98.14560598 -127.62807602 98.19670737 -119.02263927 98.26006222 C-119.0619154 96.97543087 -119.0619154 96.97543087 -119.10198498 95.66484737 C-119.18797866 92.44062857 -119.25025832 89.21700041 -119.29729748 85.99199581 C-119.32220733 84.60507958 -119.3561493 83.21829135 -119.39983654 81.83183956 C-119.69888659 72.08632611 -119.12520119 63.8782894 -112.29534435 56.35820675 C-106.38532683 50.63296261 -99.19009095 48.79212045 -91.13787365 48.91948605 C-90.39543407 48.91904797 -89.6529945 48.91860989 -88.88805676 48.91815853 C-86.46388849 48.92022816 -84.04043487 48.94347111 -81.61638927 48.96709347 C-79.92388823 48.97269595 -78.23138229 48.97696297 -76.53887463 48.97995663 C-72.10664728 48.9913541 -67.67471973 49.02077675 -63.24260998 49.05406857 C-58.71099432 49.08487997 -54.17932973 49.09848552 -49.64763927 49.11357784 C-40.77250831 49.14565187 -31.89759882 49.1967858 -23.02263927 49.26006222 C-23.04358654 48.46946407 -23.06453381 47.67886593 -23.08611584 46.86431026 C-23.17010206 43.22552758 -23.22156015 39.58694978 -23.27263927 35.94756222 C-23.3061549 34.70426144 -23.33967052 33.46096066 -23.37420177 32.17998409 C-23.46940961 23.11143757 -22.63440687 14.81515373 -16.83904552 7.50615597 C-16.09525646 6.90932003 -15.3514674 6.31248409 -14.58513927 5.69756222 C-13.84392834 5.07752316 -13.1027174 4.45748409 -12.33904552 3.81865597 C-8.32143278 1.11540557 -4.83035099 0.01101658 0 0 Z " fill="#D1E2F7" transform="translate(215.02263927459717,-0.26006221771240234)"/>
<path d="M0 0 C0.9930726 -0.00706559 1.98614519 -0.01413118 3.0093109 -0.02141088 C4.09295481 -0.0189958 5.17659872 -0.01658071 6.29308033 -0.01409245 C7.45002567 -0.01932912 8.606971 -0.0245658 9.79897529 -0.02996117 C13.00645815 -0.04236713 16.21380518 -0.04580473 19.42130744 -0.04536426 C22.88226787 -0.04701372 26.34318849 -0.06008273 29.80412769 -0.07155704 C37.37037688 -0.09439708 44.93659801 -0.10232671 52.502877 -0.10738349 C57.22927279 -0.11064193 61.95566046 -0.11716534 66.68205166 -0.12438488 C79.77366562 -0.14395019 92.86527203 -0.16035458 105.95690155 -0.16326141 C106.79451192 -0.16344898 107.63212229 -0.16363655 108.49511479 -0.16382981 C110.19308778 -0.16419605 111.89106076 -0.16455975 113.58903375 -0.16492092 C114.43188624 -0.16510373 115.27473873 -0.16528654 116.14313221 -0.16547489 C116.98701619 -0.16565544 117.83090018 -0.16583599 118.7003564 -0.16602201 C132.37005709 -0.1695626 146.03960015 -0.19657807 159.70924618 -0.23397278 C173.75099529 -0.27207729 187.79266623 -0.29141905 201.83446819 -0.29172093 C209.71547241 -0.29230504 217.59628862 -0.30076748 225.47724438 -0.32971859 C232.18894873 -0.35426131 238.90039652 -0.36149606 245.61213364 -0.34647106 C249.03427032 -0.33931358 252.45590068 -0.34010819 255.87798023 -0.36288166 C259.59466848 -0.38331517 263.31005108 -0.37280374 267.02672291 -0.35466862 C268.63545836 -0.37446857 268.63545836 -0.37446857 270.27669352 -0.39466852 C277.44078797 -0.31499893 283.03222032 1.13693031 288.97736073 5.26006222 C294.51805944 11.09374258 297.22354817 16.63531086 297.23742294 24.75352764 C297.24122861 25.39480575 297.24503429 26.03608385 297.24895528 26.69679463 C297.25927195 28.84831654 297.25536483 30.99957467 297.25151539 33.15111446 C297.25596776 34.70819266 297.2612818 36.2652686 297.26738411 37.8223412 C297.28157469 42.10348128 297.2832272 46.38454879 297.2827872 50.66570902 C297.28443447 55.28207529 297.2974993 59.89841158 297.30897999 64.51476192 C297.33183588 74.60978908 297.33975119 84.70479522 297.34480643 94.79984474 C297.34806267 101.10283312 297.3545847 107.40581539 297.36180782 113.70880032 C297.38137428 131.15908137 297.3977783 148.60935674 297.40068436 166.05964947 C297.40087193 167.17646686 297.4010595 168.29328425 297.40125275 169.44394459 C297.401619 171.70801719 297.4019827 173.97208979 297.40234386 176.23616239 C297.40252667 177.3600552 297.40270948 178.483948 297.40289783 179.64189816 C297.40316866 181.32979428 297.40316866 181.32979428 297.40344495 183.05178931 C297.40698704 201.28751548 297.43401142 219.5231236 297.47139572 237.75880882 C297.50946818 256.47993235 297.52884175 275.20099728 297.52914387 293.92216039 C297.52972867 304.43391901 297.53823518 314.94553679 297.56714153 325.45725918 C297.59164115 334.407661 297.59894786 343.35787061 297.58389401 352.30829689 C297.57671939 356.87453811 297.57760629 361.44039969 297.6003046 366.00659847 C297.62089607 370.18905195 297.61829298 374.37083393 297.59742976 378.55328014 C297.59393517 380.06405301 297.59884371 381.57487434 297.6131342 383.08558366 C297.6974444 392.61463335 296.89140107 399.7835317 290.33263105 407.09305739 C283.3889328 414.03331028 274.17723529 414.57559733 264.84127712 414.60839462 C262.49845008 414.59971663 260.15601825 414.57665202 257.81329823 414.55303097 C256.16849628 414.54742518 254.52368928 414.54315974 252.8788805 414.54016781 C248.58148468 414.52879626 244.28440037 414.49939679 239.98712635 414.46605587 C235.58938274 414.43518772 231.19158805 414.42162693 226.79376698 414.40654659 C218.18815639 414.37451846 209.58279748 414.32341707 200.97736073 414.26006222 C201.00354481 415.11648312 201.02972889 415.97290401 201.05670643 416.85527706 C201.14270011 420.07949587 201.20497977 423.30312403 201.25201893 426.52812862 C201.27692878 427.91504486 201.31087075 429.30183308 201.35455799 430.68828487 C201.65360804 440.43379833 201.07992264 448.64183504 194.2500658 456.16191769 C188.30762653 461.91856993 181.09165254 463.72688394 173.00079823 463.60063839 C172.24860508 463.60107647 171.49641193 463.60151455 170.72142506 463.6019659 C168.26479503 463.59989586 165.80886974 463.57665082 163.35236073 463.55303097 C161.63743939 463.54742863 159.92251321 463.54316155 158.20758533 463.54016781 C153.71617611 463.52876916 149.22506262 463.49934544 144.73376942 463.46605587 C140.14183012 463.43524704 135.54984256 463.42163946 130.95782948 463.40654659 C121.96421068 463.37447048 112.9708104 463.32333507 103.97736073 463.26006222 C103.97703467 462.16756977 103.97703467 462.16756977 103.97670203 461.05300677 C103.9631844 417.88050501 103.92369451 374.70809393 103.8505051 331.53564999 C103.84173842 326.35117703 103.8331886 321.16670373 103.82477283 315.98223019 C103.82309377 314.95010058 103.82141471 313.91797097 103.81968477 312.85456471 C103.7930194 296.14534441 103.78392002 279.43615841 103.7813193 262.72691901 C103.77825919 245.58001459 103.75630581 228.43320931 103.71683615 211.28634965 C103.69307857 200.70690957 103.68403464 190.12766743 103.69384762 179.54820435 C103.69916584 172.29216973 103.68612208 165.03631238 103.65869782 157.78032823 C103.64341873 153.59476023 103.63617954 149.40958902 103.65076351 145.22400951 C103.66395073 141.38789173 103.65395142 137.55254158 103.625923 133.71650998 C103.61695742 131.67993628 103.63243767 129.6432996 103.64894038 127.60677302 C103.55749475 119.26991487 102.44183205 111.87000791 96.42028743 105.65225184 C89.70119309 100.37481721 81.61095857 98.80780553 73.26433277 98.8613348 C72.43584892 98.85468797 71.60736508 98.84804115 70.75377566 98.8411929 C68.00387561 98.82268081 65.25441519 98.82516017 62.50446033 98.82768917 C60.52285624 98.8186648 58.54125773 98.80833593 56.55966663 98.79680538 C51.19878545 98.76928862 45.83801035 98.75995807 40.47706771 98.75395131 C34.86763085 98.74455381 29.2582728 98.71834928 23.64888477 98.69394588 C13.03503477 98.65031511 2.42120009 98.62174709 -8.19271225 98.5986225 C-20.27979812 98.57155252 -32.36680458 98.52764209 -44.4538337 98.48233378 C-69.31005914 98.38953648 -94.16630949 98.3178332 -119.02263927 98.26006222 C-119.14765921 94.17094851 -119.23763292 90.08259757 -119.29729748 85.99199581 C-119.32220733 84.60507958 -119.3561493 83.21829135 -119.39983654 81.83183956 C-119.69888659 72.08632611 -119.12520119 63.8782894 -112.29534435 56.35820675 C-106.38532683 50.63296261 -99.19009095 48.79212045 -91.13787365 48.91948605 C-90.39543407 48.91904797 -89.6529945 48.91860989 -88.88805676 48.91815853 C-86.46388849 48.92022816 -84.04043487 48.94347111 -81.61638927 48.96709347 C-79.92388823 48.97269595 -78.23138229 48.97696297 -76.53887463 48.97995663 C-72.10664728 48.9913541 -67.67471973 49.02077675 -63.24260998 49.05406857 C-58.71099432 49.08487997 -54.17932973 49.09848552 -49.64763927 49.11357784 C-40.77250831 49.14565187 -31.89759882 49.1967858 -23.02263927 49.26006222 C-23.05406017 48.074165 -23.05406017 48.074165 -23.08611584 46.86431026 C-23.17010206 43.22552758 -23.22156015 39.58694978 -23.27263927 35.94756222 C-23.3061549 34.70426144 -23.33967052 33.46096066 -23.37420177 32.17998409 C-23.46940961 23.11143757 -22.63440687 14.81515373 -16.83904552 7.50615597 C-16.09525646 6.90932003 -15.3514674 6.31248409 -14.58513927 5.69756222 C-13.84392834 5.07752316 -13.1027174 4.45748409 -12.33904552 3.81865597 C-8.32143278 1.11540557 -4.83035099 0.01101658 0 0 Z " fill="#E08F4D" transform="translate(215.02263927459717,-0.26006221771240234)"/>
<path d="M0 0 C0.9930726 -0.00706559 1.98614519 -0.01413118 3.0093109 -0.02141088 C4.09295481 -0.0189958 5.17659872 -0.01658071 6.29308033 -0.01409245 C7.45002567 -0.01932912 8.606971 -0.0245658 9.79897529 -0.02996117 C13.00645815 -0.04236713 16.21380518 -0.04580473 19.42130744 -0.04536426 C22.88226787 -0.04701372 26.34318849 -0.06008273 29.80412769 -0.07155704 C37.37037688 -0.09439708 44.93659801 -0.10232671 52.502877 -0.10738349 C57.22927279 -0.11064193 61.95566046 -0.11716534 66.68205166 -0.12438488 C79.77366562 -0.14395019 92.86527203 -0.16035458 105.95690155 -0.16326141 C106.79451192 -0.16344898 107.63212229 -0.16363655 108.49511479 -0.16382981 C110.19308778 -0.16419605 111.89106076 -0.16455975 113.58903375 -0.16492092 C114.43188624 -0.16510373 115.27473873 -0.16528654 116.14313221 -0.16547489 C116.98701619 -0.16565544 117.83090018 -0.16583599 118.7003564 -0.16602201 C132.37005709 -0.1695626 146.03960015 -0.19657807 159.70924618 -0.23397278 C173.75099529 -0.27207729 187.79266623 -0.29141905 201.83446819 -0.29172093 C209.71547241 -0.29230504 217.59628862 -0.30076748 225.47724438 -0.32971859 C232.18894873 -0.35426131 238.90039652 -0.36149606 245.61213364 -0.34647106 C249.03427032 -0.33931358 252.45590068 -0.34010819 255.87798023 -0.36288166 C259.59466848 -0.38331517 263.31005108 -0.37280374 267.02672291 -0.35466862 C268.63545836 -0.37446857 268.63545836 -0.37446857 270.27669352 -0.39466852 C277.44078797 -0.31499893 283.03222032 1.13693031 288.97736073 5.26006222 C294.51805944 11.09374258 297.22354817 16.63531086 297.23742294 24.75352764 C297.24122861 25.39480575 297.24503429 26.03608385 297.24895528 26.69679463 C297.25927195 28.84831654 297.25536483 30.99957467 297.25151539 33.15111446 C297.25596776 34.70819266 297.2612818 36.2652686 297.26738411 37.8223412 C297.28157469 42.10348128 297.2832272 46.38454879 297.2827872 50.66570902 C297.28443447 55.28207529 297.2974993 59.89841158 297.30897999 64.51476192 C297.33183588 74.60978908 297.33975119 84.70479522 297.34480643 94.79984474 C297.34806267 101.10283312 297.3545847 107.40581539 297.36180782 113.70880032 C297.38137428 131.15908137 297.3977783 148.60935674 297.40068436 166.05964947 C297.40087193 167.17646686 297.4010595 168.29328425 297.40125275 169.44394459 C297.401619 171.70801719 297.4019827 173.97208979 297.40234386 176.23616239 C297.40252667 177.3600552 297.40270948 178.483948 297.40289783 179.64189816 C297.40316866 181.32979428 297.40316866 181.32979428 297.40344495 183.05178931 C297.40698704 201.28751548 297.43401142 219.5231236 297.47139572 237.75880882 C297.50946818 256.47993235 297.52884175 275.20099728 297.52914387 293.92216039 C297.52972867 304.43391901 297.53823518 314.94553679 297.56714153 325.45725918 C297.59164115 334.407661 297.59894786 343.35787061 297.58389401 352.30829689 C297.57671939 356.87453811 297.57760629 361.44039969 297.6003046 366.00659847 C297.62089607 370.18905195 297.61829298 374.37083393 297.59742976 378.55328014 C297.59393517 380.06405301 297.59884371 381.57487434 297.6131342 383.08558366 C297.69730105 392.59843126 296.84989508 399.63204159 290.4555921 407.01778102 C281.58106843 415.63417651 269.31963073 414.66904643 257.81329823 414.55303097 C256.16849628 414.54742518 254.52368928 414.54315974 252.8788805 414.54016781 C248.58148468 414.52879626 244.28440037 414.49939679 239.98712635 414.46605587 C235.58938274 414.43518772 231.19158805 414.42162693 226.79376698 414.40654659 C218.18815639 414.37451846 209.58279748 414.32341707 200.97736073 414.26006222 C200.97703467 413.17074372 200.97703467 413.17074372 200.97670203 412.0594188 C200.96318435 369.01217365 200.92369421 325.96501943 200.8505051 282.91783226 C200.84173842 277.74838058 200.8331886 272.57892855 200.82477283 267.40947628 C200.82309377 266.38033729 200.82141471 265.3511983 200.81968477 264.29087327 C200.79301953 247.6301519 200.78392003 230.96946494 200.7813193 214.30872442 C200.77825917 197.2115404 200.75630557 180.11445581 200.71683615 163.0173167 C200.69307878 152.46858591 200.68403454 141.92005364 200.69384762 131.37129979 C200.69916592 124.13628973 200.68612174 116.90145746 200.65869782 109.66649802 C200.64341899 105.49308125 200.63617919 101.32006241 200.65076351 97.1466341 C200.66395116 93.32161804 200.65395059 89.49737181 200.625923 85.67244218 C200.61695785 83.64183339 200.63243726 81.61116143 200.64894038 79.5805999 C200.55410216 70.95903095 199.21732775 63.86649814 193.22204524 57.35303128 C187.05494276 51.52562512 180.63559313 49.80965596 172.3909502 49.8613348 C171.13241172 49.85136456 171.13241172 49.85136456 169.84844822 49.8411929 C167.05088059 49.82261365 164.25374258 49.82516476 161.45612049 49.82768917 C159.4452552 49.81866892 157.43439541 49.80834105 155.42354298 49.79680538 C149.97370353 49.76924029 144.52396843 49.75995148 139.07406831 49.75395131 C133.37520006 49.74456643 127.67640971 49.7183629 121.97758961 49.69394588 C111.19013454 49.65028044 100.4026946 49.6217337 89.61517805 49.5986225 C77.33225414 49.57157112 65.0494086 49.52765953 52.76654065 49.48233378 C27.50352316 49.38948682 2.24048111 49.31780626 -23.02263927 49.26006222 C-23.14020685 44.82279044 -23.21034644 40.38592694 -23.27263927 35.94756222 C-23.3061549 34.70426144 -23.33967052 33.46096066 -23.37420177 32.17998409 C-23.46940961 23.11143757 -22.63440687 14.81515373 -16.83904552 7.50615597 C-16.09525646 6.90932003 -15.3514674 6.31248409 -14.58513927 5.69756222 C-13.84392834 5.07752316 -13.1027174 4.45748409 -12.33904552 3.81865597 C-8.32143278 1.11540557 -4.83035099 0.01101658 0 0 Z " fill="#5493E9" transform="translate(215.02263927459717,-0.26006221771240234)"/>
<path d="M0 0 C1.37192713 -0.00514088 2.74384766 -0.01242343 4.11575317 -0.02168274 C7.83493166 -0.04018422 11.55339251 -0.02726685 15.27254105 -0.00759244 C19.16729808 0.00880611 23.06201008 -0.0000205 26.95678711 -0.00511169 C33.49702402 -0.00963133 40.0369748 0.00622888 46.57714844 0.03417969 C54.13504844 0.06623122 61.69243244 0.06621557 69.25036907 0.04896492 C76.52530566 0.03309284 83.80005335 0.0398377 91.07498169 0.05690193 C94.16900673 0.06376876 97.26288019 0.06274383 100.35690308 0.05535698 C104.00145829 0.0476872 107.64542736 0.05984189 111.28988266 0.08720589 C113.26290305 0.09736077 115.23599388 0.08791435 117.20901489 0.07788086 C118.38664398 0.09060532 119.56427307 0.10332977 120.77758789 0.11643982 C122.30954552 0.1206502 122.30954552 0.1206502 123.87245178 0.12494564 C127.44911869 0.77435383 129.08563851 2.10164271 131.66015625 4.63110352 C133.8856369 7.86360945 133.91324447 10.63681991 133.92085266 14.50730896 C133.92793747 15.70880585 133.93502228 16.91030273 133.94232178 18.14820862 C133.93984436 19.4631279 133.93736694 20.77804718 133.93481445 22.1328125 C133.93916253 23.53414176 133.944346 24.93546864 133.95030212 26.33679199 C133.96369308 30.14051534 133.9642707 33.94413933 133.96173882 37.74788165 C133.96066919 40.92386871 133.96555228 44.09983566 133.97034425 47.27581841 C133.98143973 54.76869241 133.98187659 62.26151629 133.97583008 69.75439453 C133.9697891 77.4831641 133.98210429 85.21175167 134.00340015 92.94049019 C134.02101525 99.57754853 134.02701766 106.21454894 134.0237624 112.85162979 C134.02194927 116.81503597 134.02458864 120.77831231 134.03847694 124.74169731 C134.05104928 128.46900499 134.04911702 132.19602891 134.03606606 135.92333221 C134.03257161 137.94171894 134.04388258 139.96011431 134.05563354 141.97846985 C134.04861923 143.18278656 134.04160492 144.38710327 134.03437805 145.62791443 C134.03454579 146.67264136 134.03471354 147.7173683 134.03488636 148.79375362 C133.48049119 152.99147626 131.82737414 155.49059469 128.83000755 158.41937351 C126.04747805 159.97324703 124.12455252 160.011155 120.9425354 160.01878357 C119.19294273 160.03364052 119.19294273 160.03364052 117.40800476 160.04879761 C116.13205948 160.04429596 114.8561142 160.03979431 113.54150391 160.03515625 C112.18120258 160.04085992 110.82090605 160.04782417 109.46061707 160.05595398 C105.7683511 160.0739032 102.07632256 160.07271352 98.38402605 160.06701159 C95.30008113 160.06392161 92.21618193 160.07001021 89.13224351 160.07605034 C81.85505076 160.09010035 74.57797538 160.08853096 67.30078125 160.07714844 C59.79804648 160.0656723 52.29566937 160.07973308 44.79298174 160.10654491 C38.34782446 160.12871356 31.90277934 160.13533652 25.45758665 160.1294685 C21.60980695 160.12609979 17.7622564 160.12850776 13.91450882 160.14571953 C10.2946325 160.16120488 6.675285 160.15721614 3.05542946 160.13841438 C1.0980662 160.13298037 -0.85932088 160.1472314 -2.81663513 160.16210938 C-13.88661152 160.06922504 -13.88661152 160.06922504 -18.33984375 155.63110352 C-20.18730155 151.90251771 -20.59075682 148.88523886 -20.59381104 144.74853516 C-20.59945068 143.57090607 -20.60509033 142.39327698 -20.61090088 141.17996216 C-20.60685242 139.89669037 -20.60280396 138.61341858 -20.59863281 137.29125977 C-20.60134436 135.91934015 -20.60490621 134.547422 -20.60925293 133.17550659 C-20.6183598 129.45654089 -20.61483972 125.73768633 -20.60849476 122.01871872 C-20.60342596 118.12396702 -20.60812866 114.22922474 -20.61126709 110.33447266 C-20.61490416 103.79433486 -20.61011442 97.25424226 -20.60058594 90.71411133 C-20.58970187 83.15633427 -20.59322763 75.59866513 -20.60423875 68.04089069 C-20.61331899 61.54818709 -20.61459329 55.05551594 -20.60936141 48.56280804 C-20.60624576 44.6866396 -20.60582123 40.81052186 -20.61243439 36.93435669 C-20.61821794 33.28997885 -20.61419253 29.64573996 -20.60264587 26.00137711 C-20.59874624 24.02833496 -20.60467635 22.05528105 -20.61090088 20.08224487 C-20.60526123 18.90461578 -20.59962158 17.72698669 -20.59381104 16.51367188 C-20.59305698 15.49236679 -20.59230293 14.47106171 -20.59152603 13.41880798 C-20.21459245 9.24378451 -18.80504086 6.35127693 -16.54858398 2.85804749 C-11.38988908 -0.72221258 -6.13121151 -0.05586295 0 0 Z " fill="#ACC5E9" transform="translate(144.33984375,145.368896484375)"/>
<path d="M0 0 C2.6590795 1.77271967 4.58993434 3.28514396 6.625 5.75 C7.13115788 8.49274349 7.13115788 8.49274349 7.1396637 11.70213318 C7.15238815 12.92045837 7.16511261 14.13878357 7.17822266 15.39402771 C7.17204042 16.74112133 7.1654344 18.08821305 7.15844727 19.43530273 C7.16550587 20.85634253 7.17425064 22.27737481 7.18455505 23.69839478 C7.20706662 27.55593171 7.20410528 31.41305869 7.19523358 35.27063632 C7.19012497 38.4913795 7.19741525 41.71204556 7.20470566 44.9327808 C7.22171046 52.53118344 7.21813329 60.12938529 7.20141602 67.7277832 C7.18449459 75.56575082 7.20032781 83.40316152 7.2326389 91.2410683 C7.2593333 97.97157424 7.26661123 104.70190681 7.25812382 111.43246037 C7.25319401 115.45183327 7.25541268 119.47087109 7.27591133 123.49020195 C7.29426637 127.2702246 7.28831311 131.04944622 7.26371193 134.82942581 C7.25870327 136.21573677 7.26219547 137.60210874 7.27486038 138.9883709 C7.37401505 150.77506103 7.37401505 150.77506103 4.23277283 154.03309631 C-2.86282182 158.70468906 -10.05423349 158.63930944 -18.375 157.75 C-22.22602215 156.26373751 -25.48957021 154.52085957 -27.375 150.75 C-27.46732636 149.22947633 -27.4969285 147.70493331 -27.49525452 146.18161011 C-27.49662918 145.21964722 -27.49800385 144.25768433 -27.49942017 143.26657104 C-27.49582489 142.2077774 -27.49222961 141.14898376 -27.48852539 140.05810547 C-27.48867142 138.94590637 -27.48881744 137.83370728 -27.4889679 136.68780518 C-27.4882691 132.9975797 -27.48047824 129.3074042 -27.47265625 125.6171875 C-27.47079195 123.06413806 -27.4693681 120.51108826 -27.46836853 117.95803833 C-27.46493553 111.91613084 -27.45704747 105.87424492 -27.44701904 99.83234608 C-27.43585045 92.95456124 -27.43034557 86.07677555 -27.42532361 79.19898391 C-27.41486466 65.0493126 -27.39726986 50.89965729 -27.375 36.75 C-27.91044434 37.10368652 -28.44588867 37.45737305 -28.99755859 37.82177734 C-29.70734863 38.2802002 -30.41713867 38.73862305 -31.1484375 39.2109375 C-32.199104 39.89615479 -32.199104 39.89615479 -33.27099609 40.59521484 C-36.53206924 42.38505889 -38.75073852 42.42115953 -42.375 41.75 C-45.33650501 39.93574468 -47.79593529 37.90812942 -49.375 34.75 C-49.578125 32.578125 -49.578125 32.578125 -49.625 30 C-49.65078125 29.15953125 -49.6765625 28.3190625 -49.703125 27.453125 C-49.25589112 23.76876971 -48.49740683 21.84895023 -46.375 18.75 C-43.23954341 16.2990285 -39.87195259 14.31456579 -36.4375 12.3125 C-35.48834717 11.74700439 -34.53919434 11.18150879 -33.5612793 10.59887695 C-31.68155386 9.48054709 -29.79857208 8.3676694 -27.91210938 7.26074219 C-25.79715064 6.00137299 -23.72752889 4.70433817 -21.671875 3.3515625 C-14.2196771 -1.42798851 -8.49068695 -3.14469887 0 0 Z " fill="#644B9F" transform="translate(91.375,147.25)"/>
<path d="M0 0 C0.93572893 -0.00623996 1.87145785 -0.01247993 2.8355422 -0.01890898 C5.97871 -0.03489504 9.12110834 -0.02221258 12.26428223 -0.00964355 C14.51451572 -0.01506216 16.76474567 -0.02218335 19.01496887 -0.03088379 C25.13266221 -0.04915097 31.25008633 -0.04203547 37.3677845 -0.02936745 C43.76277531 -0.01925742 50.15774269 -0.02862757 56.55273438 -0.03491211 C67.98149144 -0.04266111 79.41009908 -0.0302116 90.83883089 -0.00987476 C101.20287678 0.00799651 111.56674347 0.00489247 121.93078613 -0.0135498 C133.96387839 -0.03495202 145.99683526 -0.04292604 158.02995348 -0.03110075 C164.40056188 -0.02485681 170.77104681 -0.02405499 177.14164734 -0.0372467 C183.13021858 -0.04878059 189.11845059 -0.04082422 195.10698509 -0.01766968 C197.30805586 -0.01236945 199.50915506 -0.01391867 201.71021461 -0.02272034 C204.70864696 -0.03360731 207.70598369 -0.01999475 210.7043457 0 C211.58099302 -0.00892289 212.45764033 -0.01784577 213.36085272 -0.02703905 C219.21794072 0.04902619 219.21794072 0.04902619 222.39290619 2.34632111 C224.40171465 5.3219715 224.35096311 7.44492771 224.28967285 11.00793457 C224.28773926 12.69402832 224.28773926 12.69402832 224.2857666 14.41418457 C223.7885438 17.96193647 223.50519766 19.11651822 220.85217285 21.50793457 C217.71512705 21.90770457 214.92674574 22.04758435 211.78663635 22.01586914 C210.8476783 22.0221091 209.90872024 22.02834907 208.94130892 22.03477812 C205.78121779 22.05078868 202.62188943 22.03807219 199.46179199 22.0255127 C197.20185392 22.03093026 194.94191939 22.03805085 192.68199158 22.04675293 C186.53324882 22.06503364 180.38477366 22.05789879 174.23602605 22.04523659 C167.81033289 22.03513228 161.38466314 22.04449522 154.95896912 22.05078125 C143.47356553 22.05853272 131.98831054 22.04607545 120.50293206 22.0257439 C110.08713996 22.00787655 99.67152618 22.01097263 89.2557373 22.02941895 C77.16515374 22.05082124 65.07470493 22.05879482 52.98409551 22.04696989 C46.58217329 22.04072541 40.18037394 22.0399255 33.77845955 22.05311584 C27.75953349 22.06464998 21.74094494 22.05669288 15.72205544 22.03353882 C13.50969758 22.02823849 11.29731145 22.02978798 9.08496475 22.03858948 C6.07115415 22.04947619 3.05843362 22.03586411 0.04469299 22.01586914 C-0.83652739 22.02479203 -1.71774777 22.03371491 -2.6256718 22.04290819 C-8.51346055 21.96683259 -8.51346055 21.96683259 -11.68915653 19.66954803 C-13.69351321 16.69927886 -13.68047221 14.56624589 -13.64782715 11.00793457 C-13.6632959 9.32184082 -13.6632959 9.32184082 -13.67907715 7.60168457 C-12.32379454 -0.29084355 -6.69610125 -0.06815575 0 0 Z " fill="#505050" transform="translate(54.1478271484375,394.4920654296875)"/>
<path d="M0 0 C0.93572893 -0.00623996 1.87145785 -0.01247993 2.8355422 -0.01890898 C5.97871 -0.03489504 9.12110834 -0.02221258 12.26428223 -0.00964355 C14.51451572 -0.01506216 16.76474567 -0.02218335 19.01496887 -0.03088379 C25.13266221 -0.04915097 31.25008633 -0.04203547 37.3677845 -0.02936745 C43.76277531 -0.01925742 50.15774269 -0.02862757 56.55273438 -0.03491211 C67.98149144 -0.04266111 79.41009908 -0.0302116 90.83883089 -0.00987476 C101.20287678 0.00799651 111.56674347 0.00489247 121.93078613 -0.0135498 C133.96387839 -0.03495202 145.99683526 -0.04292604 158.02995348 -0.03110075 C164.40056188 -0.02485681 170.77104681 -0.02405499 177.14164734 -0.0372467 C183.13021858 -0.04878059 189.11845059 -0.04082422 195.10698509 -0.01766968 C197.30805586 -0.01236945 199.50915506 -0.01391867 201.71021461 -0.02272034 C204.70864696 -0.03360731 207.70598369 -0.01999475 210.7043457 0 C211.58099302 -0.00892289 212.45764033 -0.01784577 213.36085272 -0.02703905 C219.21794072 0.04902619 219.21794072 0.04902619 222.39290619 2.34632111 C224.40171465 5.3219715 224.35096311 7.44492771 224.28967285 11.00793457 C224.28773926 12.69402832 224.28773926 12.69402832 224.2857666 14.41418457 C223.7885438 17.96193647 223.50519766 19.11651822 220.85217285 21.50793457 C217.71512705 21.90770457 214.92674574 22.04758435 211.78663635 22.01586914 C210.8476783 22.0221091 209.90872024 22.02834907 208.94130892 22.03477812 C205.78121779 22.05078868 202.62188943 22.03807219 199.46179199 22.0255127 C197.20185392 22.03093026 194.94191939 22.03805085 192.68199158 22.04675293 C186.53324882 22.06503364 180.38477366 22.05789879 174.23602605 22.04523659 C167.81033289 22.03513228 161.38466314 22.04449522 154.95896912 22.05078125 C143.47356553 22.05853272 131.98831054 22.04607545 120.50293206 22.0257439 C110.08713996 22.00787655 99.67152618 22.01097263 89.2557373 22.02941895 C77.16515374 22.05082124 65.07470493 22.05879482 52.98409551 22.04696989 C46.58217329 22.04072541 40.18037394 22.0399255 33.77845955 22.05311584 C27.75953349 22.06464998 21.74094494 22.05669288 15.72205544 22.03353882 C13.50969758 22.02823849 11.29731145 22.02978798 9.08496475 22.03858948 C6.07115415 22.04947619 3.05843362 22.03586411 0.04469299 22.01586914 C-0.83652739 22.02479203 -1.71774777 22.03371491 -2.6256718 22.04290819 C-8.51346055 21.96683259 -8.51346055 21.96683259 -11.68915653 19.66954803 C-13.69351321 16.69927886 -13.68047221 14.56624589 -13.64782715 11.00793457 C-13.6632959 9.32184082 -13.6632959 9.32184082 -13.67907715 7.60168457 C-12.32379454 -0.29084355 -6.69610125 -0.06815575 0 0 Z " fill="#505050" transform="translate(54.1478271484375,348.4920654296875)"/>
<path d="M0 0 C1.05444966 -0.00935994 1.05444966 -0.00935994 2.13020134 -0.01890898 C4.48574234 -0.03486406 6.84025211 -0.02222582 9.19580078 -0.00964355 C10.88446659 -0.01506359 12.57312768 -0.02218558 14.26177979 -0.03088379 C18.84855979 -0.04913428 23.4349803 -0.04204255 28.02176666 -0.02936745 C32.81920855 -0.0192487 37.61661942 -0.02862999 42.4140625 -0.03491211 C50.47092217 -0.0421918 58.52763524 -0.03259239 66.58447266 -0.0135498 C75.9026788 0.00821956 85.22053487 0.00116842 94.53873253 -0.02085543 C102.53544298 -0.03900027 110.53204797 -0.04157223 118.52877235 -0.03110075 C123.30649174 -0.02486078 128.08404652 -0.024044 132.86175537 -0.0372467 C137.35327309 -0.04879129 141.84433896 -0.04080512 146.3358078 -0.01766968 C147.98538207 -0.01237511 149.63499429 -0.01390914 151.28455353 -0.02272034 C153.53429329 -0.03363058 155.78257975 -0.01996925 158.03222656 0 C159.29173126 0.0015081 160.55123596 0.0030162 161.84890747 0.00457001 C165.59533851 0.59999094 166.78439548 1.48972402 169.01611328 4.50793457 C169.54736328 7.56652832 169.54736328 7.56652832 169.51611328 10.94543457 C169.53158203 12.61412598 169.53158203 12.61412598 169.54736328 14.31652832 C168.89245074 18.25081909 167.8648259 19.73398162 165.01611328 22.50793457 C161.84890747 23.13714027 161.84890747 23.13714027 158.03222656 23.14285278 C156.9777769 23.15455271 156.9777769 23.15455271 155.90202522 23.16648901 C153.5462924 23.18643448 151.19217059 23.17063637 148.83642578 23.15490723 C147.14775651 23.16168229 145.45909463 23.17058479 143.77044678 23.18145752 C139.18360057 23.20427096 134.59731605 23.19540621 130.0104599 23.17956209 C125.21301242 23.16691364 120.41561341 23.17864026 115.61816406 23.18649292 C107.56127273 23.19559257 99.50461047 23.18359332 91.44775391 23.15979004 C82.12948054 23.13257814 72.81175414 23.14139208 63.49349403 23.16892207 C55.49676642 23.19160317 47.50020359 23.19481812 39.50345421 23.18172872 C34.72570198 23.1739287 29.94820695 23.1729077 25.17047119 23.18941116 C20.6788596 23.2038422 16.18795398 23.19385961 11.69641876 23.16493988 C10.04684879 23.15832169 8.39721952 23.1602393 6.74767303 23.1712532 C4.49764353 23.18489276 2.24988427 23.16781698 0 23.14285278 C-1.2595047 23.14096766 -2.5190094 23.13908253 -3.81668091 23.13714027 C-6.98388672 22.50793457 -6.98388672 22.50793457 -9.38717651 20.16771507 C-11.35708115 16.88627182 -11.51919188 14.75397876 -11.48388672 10.94543457 C-11.49419922 9.83039551 -11.50451172 8.71535645 -11.51513672 7.56652832 C-10.3449947 0.82960773 -6.22830732 0.00745763 0 0 Z " fill="#525253" transform="translate(51.98388671875,440.4920654296875)"/>
</svg>
